<svg width="84.65" height="27" viewBox="0 0 84.65 27" fill="none" xmlns="http://www.w3.org/2000/svg">
<path d="M2.4859 13.0038V19.1898C2.4859 19.767 2.80659 20.3282 3.44795 20.8734C4.08931 21.4185 4.41 21.9316 4.41 22.4126C4.41 23.4709 4.04121 24 3.30364 24C2.63021 24 2.00488 23.7274 1.42765 23.1823C0.850426 22.6371 0.561812 21.627 0.561812 20.1518V9.56931H1.38917C2.88996 11.2625 3.89691 11.9905 4.41 11.7532C4.28172 12.6703 3.9867 13.2058 3.52491 13.3598C3.24913 13.456 2.90279 13.3373 2.4859 13.0038ZM9.61466 13.379L11.1058 14.9471C11.5804 15.4731 11.8178 15.9765 11.8178 16.4576C11.8178 16.9386 11.6318 17.3843 11.2598 17.7948L9.69163 19.4495C10.0187 20.3859 10.5671 21.0529 11.3367 21.4506L14.2517 19.1994L16.5606 21.6911C16.8236 21.6911 17.1186 21.4121 17.4457 20.8541C17.7792 20.2961 18.1159 19.8792 18.4559 19.6034C18.7958 19.3277 19.1036 19.1898 19.3794 19.1898C19.6616 19.1898 19.8027 19.4656 19.8027 20.0171C19.8027 20.697 19.4596 21.5307 18.7733 22.5184C18.0935 23.5061 17.3623 24 16.5799 24C16.1566 24 15.2715 23.3394 13.9246 22.0182L11.3752 24C10.6056 24 9.73332 23.3618 8.75844 22.0855C7.78357 20.8028 7.29613 19.783 7.29613 19.0262L9.77821 16.573L8.01767 14.3795C7.53665 13.8344 7.29613 13.4303 7.29613 13.1674C7.29613 12.9172 7.59437 12.5228 8.19084 11.984C8.33835 11.8494 8.47945 11.7211 8.61414 11.5992L10.1919 10.1754C10.6344 9.77134 10.9583 9.56931 11.1636 9.56931C11.3688 9.56931 11.8691 9.88999 12.6644 10.5314C13.4532 11.1727 14.582 11.4934 16.0508 11.4934C17.2693 11.4934 17.8786 10.8969 17.8786 9.704C17.8786 9.03698 17.7183 8.44692 17.3976 7.93383C17.0769 7.42074 17.2693 7.1642 17.9748 7.1642C19.1934 7.1642 19.8027 8.0108 19.8027 9.704C19.8027 12.1797 18.5521 13.4175 16.0508 13.4175C14.2421 13.4175 12.6387 12.9365 11.2405 11.9744L9.61466 13.379ZM10.7595 4.39192H15.1849L11.7023 2.66986L10.7595 4.39192ZM19.4179 5.51751C19.4179 6.04985 18.9529 6.31601 18.0229 6.31601H10.7595C9.3485 6.31601 8.643 5.99533 8.643 5.35397C8.643 4.7126 8.83541 4.07124 9.22023 3.42987L10.3747 1.50578C10.7595 0.864418 11.1155 0.543736 11.4426 0.543736C11.7696 0.543736 12.1833 0.684836 12.6836 0.967036L17.4938 3.67039V1.02476C17.4938 0.383395 17.8145 0.0627127 18.4559 0.0627127C19.0972 0.0627127 19.4179 0.383395 19.4179 1.02476V5.51751ZM27.9801 19.286C27.9801 21.0177 27.6915 22.2362 27.1143 22.9417C26.5371 23.6472 25.9117 24 25.2383 24C24.5007 24 24.1319 23.4709 24.1319 22.4126C24.1319 21.9316 24.4526 21.4185 25.094 20.8734C25.7353 20.3282 26.056 19.767 26.056 19.1898V15.5725C26.056 14.7002 25.4147 14.1358 24.1319 13.8793L26.8834 9.56931C28.1276 11.0701 29.2949 11.3491 30.3852 10.4063C30.3852 11.1952 30.1191 11.8782 29.5867 12.4554C29.0608 13.0263 28.2335 12.9653 27.1047 12.2727L26.5467 13.0904C27.5023 13.5522 27.9801 14.1551 27.9801 14.899V19.286ZM35.6765 13.0038V19.1898C35.6765 19.767 35.9972 20.3282 36.6385 20.8734C37.2799 21.4185 37.6006 21.9316 37.6006 22.4126C37.6006 23.4709 37.2318 24 36.4942 24C35.8208 24 35.1955 23.7274 34.6182 23.1823C34.041 22.6371 33.7524 21.627 33.7524 20.1518V9.56931H34.5798C36.0805 11.2625 37.0875 11.9905 37.6006 11.7532C37.4723 12.6703 37.1773 13.2058 36.7155 13.3598C36.4397 13.456 36.0934 13.3373 35.6765 13.0038ZM51.0692 14.8798L47.221 11.8301L43.3729 14.8798V19.3822C43.3729 19.6387 43.7032 20.046 44.3638 20.604C45.0308 21.162 45.236 21.8675 44.9795 22.7205C44.7229 23.5735 44.29 24 43.6807 24C43.0714 24 42.5455 23.7595 42.103 23.2785C41.6668 22.7974 41.4488 22.108 41.4488 21.2101V15.2646C41.4488 14.4693 41.6893 13.8729 42.1703 13.4752L47.221 9.56931L52.2718 13.4752C52.7079 13.8344 53.0959 14.2641 53.4359 14.7644C53.7822 15.2646 53.9554 15.7008 53.9554 16.0727C53.9554 16.682 53.7245 17.2272 53.2627 17.7082L51.6753 19.3726C52.2461 20.4244 53.0831 21.3255 54.1863 22.0759H57.7073C58.7335 21.5628 59.407 20.6008 59.7276 19.1898V15.5725C59.4711 14.7002 58.6373 14.1358 57.2263 13.8793L60.3626 9.56931C61.9917 10.8136 63.0627 11.317 63.5758 11.0797C63.4476 11.9969 63.1814 12.5356 62.7773 12.696C62.3797 12.8499 61.6165 12.6126 60.4877 11.984L59.7373 12.898C60.8853 13.4239 61.5235 14.2513 61.6517 15.3801V19.1898C61.3952 21.7552 60.0804 23.3586 57.7073 24H54.1863C53.0318 24 51.9543 23.4196 50.9538 22.2587C49.9533 21.0978 49.3568 19.9851 49.1644 18.9204L51.9158 16.1882C51.9222 15.7585 51.64 15.3223 51.0692 14.8798ZM69.7522 5.74037C70.3486 5.8045 70.634 6.00333 70.6084 6.33684C70.6084 6.64469 70.7334 6.86596 70.9836 7.00065C71.2401 7.13533 71.7244 7.20268 72.4363 7.20268C73.3214 7.20268 74.0397 6.84031 74.5913 6.11557C75.1428 5.39082 75.5437 4.73343 75.7938 4.14337C76.0504 3.55332 76.2428 2.97609 76.371 2.41169C76.4993 1.84729 76.7398 1.56509 77.0926 1.56509C77.4453 1.56509 77.6217 1.90822 77.6217 2.59448C77.6217 3.28074 77.4774 4.13375 77.1888 5.15352C76.9066 6.16687 76.3614 7.06799 75.5533 7.85687C74.7516 8.63933 73.7126 9.03056 72.4363 9.03056C71.5384 9.03056 70.7046 8.82212 69.935 8.40523C69.1653 7.98835 68.7805 7.39509 68.7805 6.62545C68.8318 5.96484 69.1557 5.66982 69.7522 5.74037ZM68.8094 13.6965C69.3096 14.0043 69.7971 14.4533 70.2717 15.0434C70.7463 15.6334 70.9836 16.1689 70.9836 16.65C70.9836 17.131 70.7431 17.6024 70.262 18.0642L68.7613 19.6419C69.0883 20.6425 69.5726 21.3415 70.2139 21.7392L73.4176 19.1994L75.7265 21.6911C75.9894 21.6911 76.2845 21.4762 76.6115 21.0465C76.9451 20.6168 77.2818 20.1999 77.6217 19.7959C77.9616 19.3918 78.2695 19.1898 78.5453 19.1898C78.8275 19.1898 78.9686 19.4656 78.9686 20.0171C78.9686 20.5687 78.6254 21.3704 77.9392 22.4222C77.2593 23.4741 76.5282 24 75.7457 24C75.3224 24 74.5015 23.2753 73.2829 21.8258L70.541 24C69.7714 24 68.8991 23.442 67.9243 22.326C66.9494 21.2037 66.462 20.1037 66.462 19.0262L68.944 16.7654C68.3347 15.5789 67.5074 14.7644 66.462 14.3218C66.462 13.7895 66.741 13.1513 67.2989 12.4073C68.7035 10.5153 70.2075 9.56931 71.8109 9.56931H73.8793C75.2647 9.56931 76.4608 9.90923 77.4678 10.5891C78.4683 11.2689 78.9686 12.1508 78.9686 13.2347C78.9686 14.8317 78.4298 15.6302 77.3523 15.6302C76.2748 15.6302 75.7233 15.3095 75.6976 14.6682C75.672 14.0268 75.8964 13.7061 76.371 13.7061C76.8456 13.7061 77.0797 13.549 77.0733 13.2347C77.0605 12.9269 76.7366 12.5581 76.1017 12.1284C75.4731 11.7051 74.7324 11.4934 73.8793 11.4934H71.8109C70.8361 11.4934 69.8355 12.2278 68.8094 13.6965Z" fill="#5531E6"/>
</svg>
