<svg width="84" height="25" viewBox="0 0 84 25" fill="none" xmlns="http://www.w3.org/2000/svg">
<path d="M5.07 24.156C4.04733 24.156 3.29333 24.0087 2.808 23.714C2.32267 23.4193 2.08 22.9773 2.08 22.388V14.432C2.08 13.9813 1.976 13.652 1.768 13.444C1.57733 13.2187 1.3 13.054 0.936 12.95V11.052C0.936 10.1333 1.16133 9.44 1.612 8.972C2.06267 8.48667 2.73 8.244 3.614 8.244H6.708V11.572H5.096C4.784 11.572 4.628 11.7453 4.628 12.092V12.352C5.28667 12.56 5.76333 12.8287 6.058 13.158C6.35267 13.47 6.5 13.9293 6.5 14.536V20.412L5.226 19.424H5.564C6.41333 19.424 7.046 19.6147 7.462 19.996C7.89533 20.3773 8.112 20.958 8.112 21.738C8.112 23.35 7.098 24.156 5.07 24.156ZM5.668 22.7C6.22267 22.7 6.5 22.3967 6.5 21.79C6.5 21.1833 6.22267 20.88 5.668 20.88V22.7ZM10.7104 24V14.744H15.1304V20.1L17.0284 17.89L18.9264 20.1V14.744H23.3464V24H19.2904L17.0284 21.608L14.7664 24H10.7104ZM16.3524 13.912C14.411 13.912 12.955 13.6433 11.9844 13.106C11.0137 12.5687 10.5284 11.7713 10.5284 10.714C10.5284 9.74333 10.8577 9.06733 11.5164 8.686C12.1924 8.28733 13.059 8.088 14.1164 8.088C14.463 8.088 14.8097 8.114 15.1564 8.166C15.5204 8.20067 15.815 8.26133 16.0404 8.348V10.194C15.919 10.1593 15.815 10.142 15.7284 10.142C15.659 10.1247 15.581 10.116 15.4944 10.116C15.373 10.116 15.269 10.1593 15.1824 10.246C15.113 10.3153 15.0784 10.402 15.0784 10.506C15.0784 10.7313 15.2084 10.8873 15.4684 10.974C15.7457 11.0607 16.1184 11.104 16.5864 11.104C17.505 11.104 18.1637 10.9307 18.5624 10.584C18.9784 10.2373 19.1864 9.70867 19.1864 8.998V7.516H23.5024V8.998C23.5024 10.61 22.887 11.832 21.6564 12.664C20.443 13.496 18.675 13.912 16.3524 13.912ZM14.9772 6.58C13.7986 6.58 12.9059 6.36333 12.2992 5.93C11.6926 5.47933 11.3892 4.80333 11.3892 3.902C11.3892 2.93133 11.7359 2.14267 12.4292 1.536C13.1226 0.911999 14.1019 0.599999 15.3672 0.599999C16.1126 0.599999 16.7886 0.703999 17.3952 0.911998C18.0019 1.10267 18.5392 1.37133 19.0072 1.718C19.4579 2.04733 19.8306 2.42 20.1252 2.836H20.2292V0.599999H23.3492V6.58H14.9772ZM16.0692 4.838H19.8652C19.6399 4.578 19.3192 4.33533 18.9032 4.11C18.4872 3.88467 18.0452 3.70267 17.5772 3.564C17.1092 3.408 16.6672 3.33 16.2512 3.33C15.8179 3.33 15.5146 3.39933 15.3412 3.538C15.1506 3.67667 15.0552 3.86733 15.0552 4.11C15.0552 4.33533 15.1419 4.51733 15.3152 4.656C15.4712 4.77733 15.7226 4.838 16.0692 4.838ZM29.4745 24.156C28.3651 24.156 27.5591 23.9567 27.0565 23.558C26.5538 23.142 26.3025 22.5353 26.3025 21.738C26.3025 20.958 26.5105 20.3773 26.9265 19.996C27.3598 19.6147 28.0011 19.424 28.8505 19.424H29.1885L28.1745 20.412V14.432C28.1745 13.9813 28.0705 13.652 27.8625 13.444C27.6718 13.2187 27.3945 13.054 27.0305 12.95V11.052C27.0305 10.1333 27.2558 9.44 27.7065 8.972C28.1571 8.48667 28.8245 8.244 29.7085 8.244H32.8025V11.572H31.1905C30.8785 11.572 30.7225 11.7453 30.7225 12.092V12.352C31.3811 12.56 31.8578 12.8287 32.1525 13.158C32.4471 13.47 32.5945 13.9293 32.5945 14.536V22.388C32.5945 23.5667 31.5545 24.156 29.4745 24.156ZM29.0065 20.88C28.4518 20.88 28.1745 21.1833 28.1745 21.79C28.1745 22.3967 28.4518 22.7 29.0065 22.7V20.88ZM39.8044 24.156C38.7817 24.156 38.0277 24.0087 37.5424 23.714C37.057 23.4193 36.8144 22.9773 36.8144 22.388V14.432C36.8144 13.9813 36.7104 13.652 36.5024 13.444C36.3117 13.2187 36.0344 13.054 35.6704 12.95V11.052C35.6704 10.1333 35.8957 9.44 36.3464 8.972C36.797 8.48667 37.4644 8.244 38.3484 8.244H41.4424V11.572H39.8304C39.5184 11.572 39.3624 11.7453 39.3624 12.092V12.352C40.021 12.56 40.4977 12.8287 40.7924 13.158C41.087 13.47 41.2344 13.9293 41.2344 14.536V20.412L39.9604 19.424H40.2984C41.1477 19.424 41.7804 19.6147 42.1964 19.996C42.6297 20.3773 42.8464 20.958 42.8464 21.738C42.8464 23.35 41.8324 24.156 39.8044 24.156ZM40.4024 22.7C40.957 22.7 41.2344 22.3967 41.2344 21.79C41.2344 21.1833 40.957 20.88 40.4024 20.88V22.7ZM60.0048 24.26C58.0114 24.26 56.4601 23.8353 55.3508 22.986C54.2588 22.1193 53.7128 20.8973 53.7128 19.32V12.924C53.7128 12.352 53.5394 11.91 53.1928 11.598C52.8461 11.2687 52.3781 11.104 51.7888 11.104C51.1994 11.104 50.7314 11.2687 50.3848 11.598C50.0381 11.91 49.8648 12.352 49.8648 12.924V20.412L48.7988 19.424H49.1368C50.0034 19.424 50.6448 19.6147 51.0608 19.996C51.4941 20.3773 51.7108 20.958 51.7108 21.738C51.7108 22.5353 51.4594 23.142 50.9568 23.558C50.4714 23.9567 49.6828 24.156 48.5908 24.156C47.5161 24.156 46.7188 24.0087 46.1988 23.714C45.6961 23.4193 45.4448 22.9773 45.4448 22.388V12.924C45.4448 11.3467 45.9994 10.1333 47.1088 9.284C48.2354 8.41733 49.7954 7.984 51.7888 7.984C53.7821 7.984 55.3334 8.41733 56.4428 9.284C57.5694 10.1333 58.1328 11.3467 58.1328 12.924V19.32C58.1328 19.892 58.2974 20.3427 58.6268 20.672C58.9561 20.984 59.4154 21.14 60.0048 21.14C60.5941 21.14 61.0534 20.984 61.3828 20.672C61.7121 20.3427 61.8768 19.892 61.8768 19.32V14.432C61.8768 13.9813 61.7988 13.652 61.6428 13.444C61.5041 13.2187 61.3048 13.054 61.0448 12.95V11.052C61.0448 10.1333 61.2701 9.44 61.7208 8.972C62.1714 8.48667 62.8388 8.244 63.7228 8.244H66.4528V11.572H65.2048C64.8928 11.572 64.7368 11.7453 64.7368 12.092V12.352C65.2914 12.56 65.6901 12.8287 65.9328 13.158C66.1754 13.47 66.2968 13.9293 66.2968 14.536V19.32C66.2968 20.8973 65.7421 22.1193 64.6328 22.986C63.5408 23.8353 61.9981 24.26 60.0048 24.26ZM49.2408 22.7C49.7954 22.7 50.0728 22.3967 50.0728 21.79C50.0728 21.1833 49.7954 20.88 49.2408 20.88V22.7ZM70.2774 24V18.488H69.0554V15.888H74.6974V20.1L76.6734 18.202L78.6754 20.1V15.056C78.6754 14.7613 78.6321 14.5013 78.5454 14.276C78.4587 14.0333 78.1641 13.808 77.6614 13.6L80.7814 12.092C81.7347 12.456 82.3587 12.872 82.6534 13.34C82.9481 13.808 83.0954 14.38 83.0954 15.056V24H79.0394L76.6734 21.634L74.3334 24H70.2774ZM74.6194 14.666C73.2154 14.666 72.1147 14.4667 71.3174 14.068C70.5201 13.652 70.1214 13.0367 70.1214 12.222C70.1214 11.8407 70.1821 11.4593 70.3034 11.078C70.4247 10.6967 70.4854 10.402 70.4854 10.194C70.4854 10.038 70.4421 9.94267 70.3554 9.908C70.2687 9.87333 70.1561 9.856 70.0174 9.856H69.5754V7.516H72.3054C73.1027 7.516 73.6747 7.66333 74.0214 7.958C74.3854 8.23533 74.5674 8.66867 74.5674 9.258C74.5674 9.69133 74.5067 10.0553 74.3854 10.35C74.2641 10.6273 74.2034 10.9133 74.2034 11.208C74.2034 11.5547 74.3247 11.832 74.5674 12.04C74.8274 12.248 75.1741 12.352 75.6074 12.352C76.0754 12.352 76.4914 12.248 76.8554 12.04C77.2367 11.8147 77.6441 11.4593 78.0774 10.974L78.5974 12.768C77.9561 12.768 77.4187 12.5513 76.9854 12.118C76.5521 11.6847 76.3354 11.1473 76.3354 10.506C76.3354 9.74333 76.6041 9.154 77.1414 8.738C77.6787 8.30467 78.4241 8.088 79.3774 8.088C80.3481 8.088 81.0934 8.30467 81.6134 8.738C82.1507 9.154 82.4194 9.74333 82.4194 10.506C82.4194 11.0607 82.2807 11.52 82.0034 11.884C81.7261 12.248 81.3707 12.5253 80.9374 12.716C80.5214 12.8893 80.1054 13.002 79.6894 13.054C79.5334 13.1927 79.2301 13.392 78.7794 13.652C78.3461 13.912 77.7741 14.146 77.0634 14.354C76.3701 14.562 75.5554 14.666 74.6194 14.666ZM79.3774 11.208C79.5681 11.208 79.7154 11.1473 79.8194 11.026C79.9407 10.9047 80.0014 10.7487 80.0014 10.558C80.0014 10.3673 79.9407 10.2113 79.8194 10.09C79.7154 9.96867 79.5681 9.908 79.3774 9.908C79.2041 9.908 79.0567 9.96867 78.9354 10.09C78.8141 10.2113 78.7534 10.3673 78.7534 10.558C78.7534 10.7487 78.8141 10.9047 78.9354 11.026C79.0567 11.1473 79.2041 11.208 79.3774 11.208Z" fill="#5531E6"/>
</svg>
